<svg xmlns="http://www.w3.org/2000/svg" viewBox="0 0 512 512">
  <defs>
    <linearGradient id="bg" x1="0%" y1="0%" x2="100%" y2="100%">
      <stop offset="0%" style="stop-color:#14b8a6;stop-opacity:1" />
      <stop offset="100%" style="stop-color:#0d9488;stop-opacity:1" />
    </linearGradient>
  </defs>
  <rect width="512" height="512" rx="112" fill="url(#bg)"/>
  <path d="M256 96c-35 0-64 29-64 64v128c0 35 29 64 64 64s64-29 64-64V160c0-35-29-64-64-64zm112 192v-32h-32v32c0 44-36 80-80 80s-80-36-80-80v-32h-32v32c0 58 45 106 102 111v33h-64v32h160v-32h-64v-33c57-5 102-53 102-111z" fill="#ffffff"/>
</svg>
