<svg xmlns="http://www.w3.org/2000/svg" viewBox="0 0 512 512">
  <defs>
    <linearGradient id="bg" x1="0%" y1="0%" x2="100%" y2="100%">
      <stop offset="0%" style="stop-color:#3b82f6;stop-opacity:1" />
      <stop offset="100%" style="stop-color:#6366f1;stop-opacity:1" />
    </linearGradient>
  </defs>
  <rect width="512" height="512" rx="112" fill="url(#bg)"/>
  <path d="M256 128C150 128 64 214 64 320c0 40 12 77 33 108h318c21-31 33-68 33-108 0-106-86-192-192-192zm0 32c88 0 160 72 160 160H96c0-88 72-160 160-160zm-16 64v64h-32l48 64 48-64h-32v-64h-32z" fill="#ffffff"/>
</svg>
