<svg xmlns="http://www.w3.org/2000/svg" viewBox="0 0 512 512">
  <defs>
    <linearGradient id="bg" x1="0%" y1="0%" x2="100%" y2="100%">
      <stop offset="0%" style="stop-color:#10b981;stop-opacity:1" />
      <stop offset="100%" style="stop-color:#059669;stop-opacity:1" />
    </linearGradient>
  </defs>
  <rect width="512" height="512" rx="112" fill="url(#bg)"/>
  <path d="M160 96h192c18 0 32 14 32 32v256c0 18-14 32-32 32H160c-18 0-32-14-32-32V128c0-18 14-32 32-32zm16 64v64h160v-64H176zm0 112v32h32v-32h-32zm64 0v32h32v-32h-32zm64 0v32h32v-32h-32zm-128 64v32h32v-32h-32zm64 0v32h32v-32h-32zm64 0v32h32v-32h-32z" fill="#ffffff"/>
</svg>
